# xmcd
# Track frame offsets:
# 150
# 16051
# 30751
# 44026
# 63751
# 81002
# 99452
# 116102
# 133352
# 149328
#
# Disc length: 2189 seconds
# Revision: 0
# Processed by: cddbd v1.5.2PL0 Copyright (c) Steve Scherf et al.
# Submitted via: VisiTrax 2.10.3.257 - For more info visit www.synapsa.com
#
DISCID=81088b0a
DTITLE=Wilson Pickett - Mr. Magic Man
DYEAR=1973
DGENRE=Soul
TTITLE0=Mr. Magic Man
TTITLE1=Only I Can Sing This Song
TTITLE2=Love Is Beautiful
TTITLE3=I Sho' Love You
TTITLE4=Baby Man
TTITLE5=Sin Was The Blame
TTITLE6=What It Is
TTITLE7=If You Need Me
TTITLE8=I Can't Let My True Love Slip Away
TTITLE9=I Keep Walking Straight Ahead
EXTD=
EXTT0=
EXTT1=
EXTT2=
EXTT3=
EXTT4=
EXTT5=
EXTT6=
EXTT7=
EXTT8=
EXTT9=
PLAYORDER=
